<svg xmlns="http://www.w3.org/2000/svg" xmlns:xlink="http://www.w3.org/1999/xlink" width="32" height="32" viewBox="0 0 32 32">
  <defs>
    <rect id="rect-1" width="32" height="32" x="0" y="0" rx="0" ry="0"/>
    <mask id="mask-2" maskContentUnits="userSpaceOnUse" maskUnits="userSpaceOnUse">
      <rect width="32" height="32" x="0" y="0" fill="black"/>
      <use fill="white" xlink:href="#rect-1"/>
    </mask>
  </defs>
  <g>
    <use fill="none" xlink:href="#rect-1"/>
    <g mask="url(#mask-2)">
      <path fill="rgb(255,255,255)" fill-rule="evenodd" d="M20.78117223 14.2091357L15.5145051 8.9424693c-.50528995-.52317292-.49805944-1.35477472.01624941-1.8690834.51430849-.51430878 1.34591033-.52153859 1.86908297-.01624943l7.54266782 7.54266644c.25094581.2495137.39204658.5887879.39204658.9426674 0 .35387896-.14110077.69315404-.39204658.94266597l-7.54266782 7.54266662c-.33476349.34661377-.83050211.48562462-1.29667671.36360549-.46617442-.12201984-.83023721-.48607907-.95225849-.95225402-.12202146-.46617372.01698774-.96191344.36359796-1.2966795l5.266672-5.26667138H7.99983737c-.47635419 0-.9165235-.25413278-1.1547006-.66666695-.23817705-.41253417-.23817705-.9207983 0-1.33333283.2381771-.41253523.67834641-.66666677 1.1547006-.66666677h12.78133485v-.00000124z"/>
    </g>
  </g>
</svg>
