<svg xmlns="http://www.w3.org/2000/svg" xmlns:xlink="http://www.w3.org/1999/xlink" width="37" height="32.4" viewBox="0 0 37 32.4">
  <defs>
    <rect id="rect-2" width="32" height="32" x="5" y=".4" rx="0" ry="0"/>
    <mask id="mask-3" maskContentUnits="userSpaceOnUse" maskUnits="userSpaceOnUse">
      <rect width="37" height="32.4" x="0" y="0" fill="black"/>
      <use fill="white" xlink:href="#rect-2"/>
    </mask>
  </defs>
  <g>
    <ellipse cx="9" cy="9" fill="rgb(255,164,91)" rx="9" ry="9"/>
    <g>
      <use fill="none" xlink:href="#rect-2"/>
      <g mask="url(#mask-3)">
        <path fill="rgb(54,54,54)" fill-rule="evenodd" d="M13.00009155 5.73331299c.73635865 0 1.333313.59692383 1.333313 1.33331299v18.666687c0 .4763794-.25411988.91650391-.6666565 1.15472413-.41253662.23815918-.92080689.23815918-1.3333435 0-.41253663-.23822022-.6666565-.67834473-.6666565-1.15472412V7.06662598c0-.73638916.59695434-1.333313 1.3333435-1.333313zm16 5.33331299c.73635865 0 1.333313.59692382 1.333313 1.33331298V25.733313c0 .47631836-.25411988.9165039-.6666565 1.15466308-.41253662.23822022-.92080689.23822022-1.3333435 0-.41253663-.23815918-.6666565-.67834472-.6666565-1.15466308V12.39993896c0-.73638916.59695434-1.33331298 1.3333435-1.33331298zm-6.666687 6.666687c0-.73638915-.59695435-1.33331298-1.333313-1.33331298-.73638916 0-1.3333435.59692383-1.3333435 1.33331299v8c0 .4763794.25411987.91656494.6666565 1.15472412.41253661.23815918.92080688.23815918 1.3333435 0s.6666565-.67834473.6666565-1.15472412v-8z"/>
      </g>
    </g>
  </g>
</svg>
