<svg xmlns="http://www.w3.org/2000/svg" xmlns:xlink="http://www.w3.org/1999/xlink" width="34" height="37.2" viewBox="0 0 34 37.2">
  <defs>
    <rect id="rect-2" width="32" height="32" x="2" y="5.2" rx="0" ry="0"/>
    <mask id="mask-3" maskContentUnits="userSpaceOnUse" maskUnits="userSpaceOnUse">
      <rect width="34" height="37.2" x="0" y="0" fill="black"/>
      <use fill="white" xlink:href="#rect-2"/>
    </mask>
  </defs>
  <g>
    <ellipse cx="9" cy="9" fill="rgb(255,164,91)" rx="9" ry="9"/>
    <g>
      <use fill="none" xlink:href="#rect-2"/>
      <g mask="url(#mask-3)">
        <path fill="rgb(54,54,54)" fill-rule="evenodd" d="M20.84526062 9.2c.23817444.41253662.67834473.66668701 1.15470123.66668701 1.47275544 0 2.66666413 1.1939087 2.66666413 2.66662598V15.2c0 1.47277832-1.1939087 2.66668701-2.66666413 2.66668701-.4763565 0-.9165268.25408936-1.15470123.66662598-.23818207.41253662-.23818207.9208374 0 1.33337402.23817444.41253662.67834473.66662598 1.15470123.66662598 2.9455185 0 5.33333588-2.38781738 5.33333588-5.33331299v-2.66668701C27.33329773 9.58781739 24.94548035 7.2 21.99996185 7.2c-.4763565 0-.9165268.2541504-1.15470123.66668701-.23818207.41253662-.23818207.92077637 0 1.33331299zm-6.84530258-.66668701c2.9455223 0 5.33333206 2.38781738 5.33333206 5.33331299v2.666687c0 1.90539552-1.01652527 3.66607667-2.66666412 4.61877442-1.65013886.9527588-3.68319321.9527588-5.33333207 0-1.65014266-.95269775-2.66666793-2.7133789-2.66666793-4.61877441v-2.66668701c0-2.9454956 2.38781356-5.333313 5.33333206-5.333313zM11.33325195 13.866687c0-1.47277832 1.1939087-2.66668701 2.66666794-2.66668701 1.47275925 0 2.66666412 1.1939087 2.66666412 2.66668701v2.66668701C16.6665764 18.00609131 15.4726677 19.2 13.99991226 19.2c-1.47275924 0-2.6666603-1.1939087-2.6666603-2.66668701V13.866687zm14.66667939 20c-.47635651 0-.9165268-.25415039-1.15470124-.66668701-.23818207-.41253662-.23818207-.92077637 0-1.33331299C25.08340454 31.4541504 25.52357483 31.2 25.99993134 31.2h1.33332824c.73638153 0 1.33333588-.59692383 1.33333588-1.33331299v-2.4506836c-.00067139-1.94500732-1.245018-3.67028808-3.08921814-4.28436278-.45198822-.15075684-.78921509-.53118897-.88466644-.99798584-.09544373-.46679688.06539917-.94909668.42194366-1.26513672.3565445-.31604004.85462189-.41790772 1.3066101-.26715088 2.93346406.97747802 4.91215516 3.72259521 4.91199494 6.81463623v2.4506836c0 2.20916747-1.7908554 4-4 4h-1.33332824zM9.37862396 21.96000977c.4462967-.1904297.96081162-.12341309 1.34339142.17504882.38257599.29846192.57281494.78118897.49671173 1.26043702-.07610702.479187-.40654373.87927246-.86276245 1.04449462-1.82390594.71862793-3.02275467 2.47961426-3.02267075 4.44000245V31.2c0 .73638916.59695435 1.33331299 1.33333207 1.33331299H19.3332901c.73638153 0 1.33333588-.59692383 1.33333588-1.33331299v-2.19598389c.0007019-2.0232544-1.2489624-3.83752441-3.14045334-4.5583496-.45912934-.1591797-.7953186-.55548096-.87745285-1.03442383-.08213425-.47894288.10279464-.96466065.48266601-1.2677002.37986756-.30303955.894516-.37536621 1.3432312-.1889038 2.92520142 1.1142578 4.85844422 3.91912841 4.85868073 7.04937743L23.3332901 31.2c0 2.20910645-1.7908554 4-4 4H8.66662598c-2.20914078 0-4-1.79089355-4-4v-2.32000732c0-3.05456543 1.8684616-5.79931641 4.71199798-6.91998291z"/>
      </g>
    </g>
  </g>
</svg>
