<svg xmlns="http://www.w3.org/2000/svg" xmlns:xlink="http://www.w3.org/1999/xlink" width="32" height="32" viewBox="0 0 32 32">
  <defs>
    <rect id="rect-1" width="32" height="32" x="0" y="0" rx="0" ry="0"/>
    <mask id="mask-2" maskContentUnits="userSpaceOnUse" maskUnits="userSpaceOnUse">
      <rect width="32" height="32" x="0" y="0" fill="black"/>
      <use fill="white" xlink:href="#rect-1"/>
    </mask>
  </defs>
  <g>
    <use fill="none" xlink:href="#rect-1"/>
    <g mask="url(#mask-2)">
      <path fill="rgb(37,66,76)" fill-rule="evenodd" d="M26.66662406 6.66674805H5.3332882c-1.47275544 0-2.66666413 1.19384765-2.66666413 2.66674804v13.33325196c0 1.47265625 1.1939087 2.66674804 2.66666413 2.66674804h21.33333587c1.47276306 0 2.66667176-1.1940918 2.66667176-2.66674804V9.33349609c0-1.47290039-1.1939087-2.66674804-2.66667176-2.66674804zM7.46398734 9.33349609l7.66267395 6.82666016c.5054474.44995117 1.2678833.44995117 1.7733307 0l7.66400146-6.82666016H7.46398735zm19.20259095 1.69726563l-7.99198914 7.12133789c-1.51675415 1.35180664-3.80592346 1.35180664-5.32266998 0l-8.01866913-7.14672852v11.66137696h21.33332825V11.03076172z"/>
    </g>
  </g>
</svg>
