<svg xmlns="http://www.w3.org/2000/svg" xmlns:xlink="http://www.w3.org/1999/xlink" width="32" height="32" viewBox="0 0 32 32">
  <defs>
    <rect id="rect-1" width="32" height="32" x="0" y="0" rx="0" ry="0"/>
    <mask id="mask-2" maskContentUnits="userSpaceOnUse" maskUnits="userSpaceOnUse">
      <rect width="32" height="32" x="0" y="0" fill="black"/>
      <use fill="white" xlink:href="#rect-1"/>
    </mask>
  </defs>
  <g>
    <use fill="none" xlink:href="#rect-1"/>
    <g mask="url(#mask-2)">
      <path fill="rgb(37,66,76)" fill-rule="evenodd" d="M6.66662598 12c0 3.43603516 3.11066436 9.2133789 9.33332824 17.3334961C22.22262573 21.2133789 25.33329772 15.43603515 25.33329772 12c0-3.33447266-1.77893065-6.41552734-4.66667174-8.08276367-2.8877411-1.66723633-6.44558716-1.66723633-9.33332825 0C8.445549 5.58447266 6.66662598 8.66552734 6.66662598 12zm9.33331298-6.6665039c3.68188477 0 6.66664124 2.98486328 6.66664124 6.66674804 0 2.30126953-2.21333313 6.70800781-6.6666565 12.87060547-4.45333862-6.16259766-6.66667175-10.56933594-6.66667175-12.87060547.00001526-3.6821289 2.98479462-6.66674805 6.66668701-6.66674805zm.00001526 12c-1.90541076 0-3.66609192-1.01660157-4.6187973-2.66674805-.95270538-1.65014649-.95270538-3.68310547 0-5.33325196.95270538-1.65014648 2.71338654-2.66674804 4.6187973-2.66674804 1.90542603 0 3.66609192 1.01660156 4.61880494 2.66674804.952713 1.65014649.952713 3.68310547 0 5.33325196-.95271302 1.65014648-2.71337891 2.66674804-4.61880494 2.66674804zm2.66662598-5.33325196c0 1.47265625-1.1939087 2.6665039-2.66667175 2.6665039-1.47276306 0-2.66666413-1.19384765-2.6666565-2.6665039.00000763-1.47290039 1.19392395-2.66674805 2.66667176-2.66674805 1.47276306 0 2.66665649 1.19384766 2.66665649 2.66674805z"/>
    </g>
  </g>
</svg>
