<svg xmlns="http://www.w3.org/2000/svg" xmlns:xlink="http://www.w3.org/1999/xlink" width="35" height="33.6" viewBox="0 0 35 33.6">
  <defs>
    <rect id="rect-2" width="32" height="32" x="3" y="1.6" rx="0" ry="0"/>
    <mask id="mask-3" maskContentUnits="userSpaceOnUse" maskUnits="userSpaceOnUse">
      <rect width="35" height="33.6" x="0" y="0" fill="black"/>
      <use fill="white" xlink:href="#rect-2"/>
    </mask>
  </defs>
  <g>
    <ellipse cx="9" cy="9" fill="rgb(255,164,91)" rx="9" ry="9"/>
    <g>
      <use fill="none" xlink:href="#rect-2"/>
      <g mask="url(#mask-3)">
        <path fill="rgb(54,54,54)" fill-rule="evenodd" d="M6.23303223 30.69043307c.35498047.24963379.80926513.31091308 1.2177124.1642456l6.28399658-2.09466553c.8213501-.27386474 1.70935059-.27386474 2.53070068 0l4.62664795 1.54266358c1.36834717.45605469 2.84765625.45605469 4.21600342 0l6.28375244-2.0946045c.55963135-.17199706.94158936-.68902587.94158936-1.27471923V5.59997896c-.00006104-.43395996-.21136475-.84075927-.56634522-1.09039306-.35498047-.24969483-.80926513-.31091309-1.21765136-.1642456l-6.28399659 2.09466552c-.8213501.27386475-1.70935058.27386475-2.53070068 0l-4.62664795-1.54266357c-1.36834717-.4560547-2.84765625-.4560547-4.21600342 0L6.6083374 6.99194674c-.55963135.17199707-.94158935.68896484-.94158935 1.27471924v21.33331298c.00006103.434021.2113037.84082032.56628418 1.0904541zm6.65911865-4.45977784l-4.55865479 1.52001954V9.22803072l5.333313-1.77868652v18.57330322c-.262146.05377197-.520813.12322998-.77465821.20800781zm8.7746582-17.05328369v18.57330323l-4.55865478-1.52001954c-.25378418-.08477783-.51251221-.15423584-.7746582-.20794677V7.4493442l4.55865478 1.52001953c.25384521.08477783.5125122.15423584.7746582.20800781zm8 16.7946167V7.4493442L25.1081543 8.96936373c-.25378418.08477783-.51251221.15423584-.7746582.20800781v18.57330323l5.33331298-1.77868653z"/>
      </g>
    </g>
  </g>
</svg>
