<svg xmlns="http://www.w3.org/2000/svg" xmlns:xlink="http://www.w3.org/1999/xlink" width="32" height="32" viewBox="0 0 32 32">
  <defs>
    <rect id="rect-1" width="32" height="32" x="0" y="0" rx="0" ry="0"/>
    <mask id="mask-2" maskContentUnits="userSpaceOnUse" maskUnits="userSpaceOnUse">
      <rect width="32" height="32" x="0" y="0" fill="black"/>
      <use fill="white" xlink:href="#rect-1"/>
    </mask>
  </defs>
  <g>
    <use fill="none" xlink:href="#rect-1"/>
    <g mask="url(#mask-2)">
      <path fill="rgb(37,66,76)" fill-rule="evenodd" d="M11.99999793 2.66674805h8c2.20913696 0 4 1.79077148 4 4v18.66674804c0 2.20898438-1.79086304 4-4 4h-8c-2.20913696 0-4-1.79101562-4-4V6.66674805c0-2.20922852 1.79086304-4 4-4zm-.00003815 2.66674804c-.73638153 0-1.33333587.59692383-1.33333587 1.33325196v18.66674804c0 .73632813.59695434 1.33325196 1.33333587 1.33325196h7.99999237c.73638916 0 1.3333435-.59692383 1.3333435-1.33325196V6.66674805c0-.73632813-.59695434-1.33325196-1.3333435-1.33325196h-7.99999237zm2.84529877 19.33325196c.23817444.41259765.67834473.66674804 1.1546936.66674804.47636414 0 .91653443-.25415039 1.15470887-.66674804.23817443-.41259766.23817443-.92089844 0-1.33325196-.23817444-.41259765-.67834473-.66674804-1.15470887-.66674804-.47634887 0-.91651916.25415039-1.1546936.66674804-.23817444.41235352-.23817444.9206543 0 1.33325196z"/>
    </g>
  </g>
</svg>
